<?xml version="1.0" standalone="no"?>
<!DOCTYPE svg PUBLIC "-//W3C//DTD SVG 20010904//EN"
 "http://www.w3.org/TR/2001/REC-SVG-20010904/DTD/svg10.dtd">
<svg version="1.0" xmlns="http://www.w3.org/2000/svg"
 width="512.000000pt" height="512.000000pt" viewBox="0 0 512.000000 512.000000"
 preserveAspectRatio="xMidYMid meet">
<metadata>
Created by potrace 1.14, written by Peter Selinger 2001-2017
</metadata>
<g transform="translate(0.000000,512.000000) scale(0.100000,-0.100000)"
fill="#000000" stroke="none">
<path d="M1143 4477 c-260 -259 -475 -475 -478 -478 -2 -3 416 -5 931 -5 514
1 943 -2 952 -6 15 -6 962 -943 962 -952 0 -3 -430 -4 -956 -5 -526 0 -958 -1
-959 -3 -17 -15 -924 -920 -937 -934 -16 -19 9 -19 944 -19 l960 1 475 -473
c305 -304 468 -473 456 -473 -10 -1 -440 -1 -956 -1 -852 -1 -937 -2 -925 -17
7 -8 224 -225 481 -482 l468 -467 962 958 961 958 -477 477 -478 477 476 473
c261 261 475 477 475 482 0 4 -216 222 -479 485 l-479 477 -954 0 -953 0 -472
-473z"/>
</g>
</svg>
